<svg xmlns="http://www.w3.org/2000/svg" width="175" height="45.2" viewBox="0 0 175 45.2"><g data-name="Layer 2"><g fill="#262626"><path d="M59.4 12.3a19.2 19.2 0 0 0-11.7 3.8.7.7 0 0 0-.1.9l3.2 3.8a.7.7 0 0 0 .9.2 10.3 10.3 0 0 1 7-2.4c5.3 0 7 1.6 7 5.1v1.4a.4.4 0 0 1-.4.4h-6.4c-7.7 0-12.5 3.1-12.5 9.9S51.2 45 56.9 45s7.3-1.5 8.8-3.7h.1v2.3a.6.6 0 0 0 .6.6h5.5a.5.5 0 0 0 .6-.6V23.3c0-7.7-3.5-11-13.1-11zm6.3 21.5c0 3.5-2.5 5.3-7 5.3s-5.3-1.3-5.3-3.9 2-4.2 6.7-4.2h5.2a.4.4 0 0 1 .4.4zM77.6 36.1a25.5 25.5 0 0 1-1.1-7.6 22.9 22.9 0 0 1 1.1-7.7c1.7-5.5 6.5-8.6 12.7-8.6s11.1 3.3 12.8 8.6c.8 2.2 1.1 4.3 1.1 9.4a.7.7 0 0 1-.7.6H84.2c-.2 0-.3.1-.3.4a6.1 6.1 0 0 0 .4 2.4c1 3 3.5 4.7 7 4.7a9.2 9.2 0 0 0 7.3-3 .8.8 0 0 1 1-.1l3.8 3.4a.6.6 0 0 1 .1.9c-2.7 3.1-7.1 5.3-12.9 5.3s-11.2-3.2-13-8.7zm18.9-13.8a6.7 6.7 0 0 0-12.3 0 10.6 10.6 0 0 0-.3 2.7c0 .2.1.4.3.4h12.3a.4.4 0 0 0 .4-.4 10.3 10.3 0 0 0-.4-2.7zM109.5 44c-.4 0-.7-.2-.7-.6V13.5a.7.7 0 0 1 .7-.7h5.9a.7.7 0 0 1 .7.7v2.6c1.5-2.4 3.2-4 7.1-4a8.1 8.1 0 0 1 6 2.6.6.6 0 0 1 .2.9l-3.5 4.3c-.2.4-.5.4-.9.2s-1.9-1.6-3.6-1.6c-3.6 0-5.3 3-5.3 8v16.9c0 .4-.3.6-.7.6z"/><rect x="131.6" width="7.3" height="6.93" rx=".6" ry=".6"/><rect x="131.6" y="12.8" width="7.3" height="31.21" rx=".6" ry=".6"/><path d="M142.5 39.8a.7.7 0 0 1 0-.9l3.7-3.9a.7.7 0 0 1 .9 0 14.4 14.4 0 0 0 9.1 3.6c3.9 0 5.8-1.6 5.8-3.7s-1.1-3-5.2-3.4l-3.3-.4c-6.4-.6-9.6-3.8-9.6-9.1s4.3-9.9 12.1-9.9a19 19 0 0 1 11.7 3.8.6.6 0 0 1 .1.9l-3.1 3.9a.6.6 0 0 1-.9.1 15.1 15.1 0 0 0-8.2-2.6c-3.1 0-4.7 1.4-4.7 3.2s1.1 2.9 5.1 3.3l3.4.4c6.5.6 9.6 4 9.6 9.1s-4.5 10.5-13.1 10.5a19.4 19.4 0 0 1-13.4-4.9z"/></g><path d="M36.8 30.5h.1a.6.6 0 0 1-.2-.5 14.9 14.9 0 0 0 .2-2.1 17.7 17.7 0 0 0-.8-5.2c-.1-.2-.1-.3.1-.5a4.6 4.6 0 0 0 .7-5.9 4.4 4.4 0 0 0-5.7-1.5c-.2.1-.3 0-.5-.1a17.1 17.1 0 0 0-11-4h-.5c-.4 0-.4-.1-.5-.3A3.2 3.2 0 0 0 15.3 9a3.1 3.1 0 0 0-2.4 2.8c-.1.2-.1.3-.3.4a17.4 17.4 0 0 0-9.4 10.9c-.1.2-.1.2-.3.3h-.1A3.5 3.5 0 0 0 0 26.6a3.6 3.6 0 0 0 2.4 3.6c.2.1.3.1.3.4a17.8 17.8 0 0 0 3 7.4 14.6 14.6 0 0 0 1.6 1.9 16.4 16.4 0 0 0 7.1 4.4 16.6 16.6 0 0 0 2.1.6 16.6 16.6 0 0 0 3.2.3 18 18 0 0 0 5.7-1l1.9-.8a17.2 17.2 0 0 0 8-8.2c.1-.2.2-.2.4-.3a2.5 2.5 0 0 0 2-1.7 2.5 2.5 0 0 0-.9-2.7zm-6.7-8.2c.1.2.2.2.1.4a36.2 36.2 0 0 1-2.6 3.8c-.1.1-.2.1-.5 0a30.9 30.9 0 0 0-5.9-1.8c-.3 0-.3 0-.4-.4a21.4 21.4 0 0 0-.8-4.4h.1c-.1-.2-.1-.3.1-.3a32.9 32.9 0 0 1 5.4-.5h2.8c.1 0 .2.1.2.4a4.6 4.6 0 0 0 .8 1.9 2.7 2.7 0 0 0 .7.9zm-8.2 9.3l-.8-.5c-.2-.1-.2-.1-.2-.5A22.9 22.9 0 0 0 21 27c0-.2.1-.3.2-.3a24.4 24.4 0 0 1 4.6 1.4c.1 0 .2.1 0 .3a33.8 33.8 0 0 1-3.5 3.1zm-3.6-17.3h.1a2.7 2.7 0 0 0 .6-1.2c.1-.2.1-.3.4-.3h.3a15.1 15.1 0 0 1 9.5 3.4c.2.1.2.2.1.4l-.3.4h.1c-.1.1-.1.2-.5.2h-3a38.1 38.1 0 0 0-5.9.5c-.2 0-.3 0-.4-.2-.3-.9-.6-1.8-1-2.7-.1-.2-.1-.3 0-.5zm.3 16.5a3.4 3.4 0 0 0-1.4.5h-.1c-.2.1-.2 0-.5-.1A32.4 32.4 0 0 0 8.1 27c-.3-.1-.3-.1-.1-.2a29.6 29.6 0 0 1 6.6-.7 29.7 29.7 0 0 1 4.2.3.2.2 0 0 1 .2.2c0 1.3 0 2.6-.1 3.9s-.1.2-.3.3zm-.5-10.5c.3 1.2.5 2.5.7 3.8s-.1.2-.4.2h.1l-3.9-.2a30.5 30.5 0 0 0-6.7.7c-.3 0-.3 0-.2-.1a30 30 0 0 1 10.1-4.6c.1 0 .2 0 .3.2zM5.2 23.5a15.6 15.6 0 0 1 8.1-9.3c.1 0 .2 0 .4.2a3 3 0 0 0 2.3 1c.2 0 .4 0 .5.2a19.5 19.5 0 0 1 .8 2.2c.1.3 0 .3-.3.4a34.4 34.4 0 0 0-11.4 5.5h-.3c-.1 0-.1 0-.1-.2zm2.7 14a15.9 15.9 0 0 1-3.2-7.1c0-.1 0-.2.2-.3a2.9 2.9 0 0 0 1.5-1.2c.1-.2.2-.2.4-.2a30.7 30.7 0 0 1 8.7 4.3c.2.1.1.2 0 .4a5.9 5.9 0 0 0-.2 1.3 1.3 1.3 0 0 0 .1.6h-.1c.1.2.1.3-.1.4a32.2 32.2 0 0 1-6.9 2 .4.4 0 0 1-.4-.2zm9.3.9a22.7 22.7 0 0 1-1.6 3.9c-.1.2-.2.2-.3.2a14.4 14.4 0 0 1-5.3-2.9c-.1-.1-.1-.2.1-.2a30.9 30.9 0 0 0 5.9-1.8c.3-.1.4-.1.5 0l.6.5c.1 0 .2.1.1.3zm7 4.1a16.3 16.3 0 0 1-4.5.6h-2c-.1 0-.2-.1-.1-.3a27.5 27.5 0 0 0 1.5-3.6c.2-.3.2-.3.5-.3l1.4-.4a.4.4 0 0 1 .5 0l1.9 2.4a6.4 6.4 0 0 1 .8 1.4.2.2 0 0 1 0 .2zm9.2-8a15.6 15.6 0 0 1-6.9 7c-.2.1-.3.1-.4-.2L25 39.7a25.6 25.6 0 0 0-2-2.6c-.2-.2-.2-.3-.1-.5h.1a5.8 5.8 0 0 0 .4-1.9 2.8 2.8 0 0 0-.1-.9c-.1-.2-.1-.3.1-.5a33.1 33.1 0 0 0 4.4-4c.1-.2.2-.3.4-.2a31.8 31.8 0 0 1 4.4 2.6c.2.1.2.2.1.4a3.1 3.1 0 0 0 .6 1.9c.1.2.2.3.1.5zm1.4-4.7c-.1.1-.1.2-.3.2h-.3c-.2.1-.3.1-.4 0a22.2 22.2 0 0 0-4.2-2.5c-.1-.1-.2-.3-.1-.4.9-1.2 1.7-2.4 2.5-3.7.1-.1.2-.2.4-.1a3.8 3.8 0 0 0 1.5 0c.2-.1.3 0 .3.2a14.9 14.9 0 0 1 .7 4.3c0 .8-.1 1.4-.1 2z" fill="#0074ba"/><path d="M170.1 41.7a2.4 2.4 0 0 1 2.5-2.4 2.3 2.3 0 0 1 2.4 2.4 2.4 2.4 0 0 1-2.4 2.5 2.5 2.5 0 0 1-2.5-2.5zm4.5 0a1.9 1.9 0 0 0-2-2 2 2 0 0 0-2.1 2 2.1 2.1 0 0 0 2.1 2.1 2 2 0 0 0 2-2.1zm-2.8 1.4c-.1 0-.2 0-.2-.1v-2.5a.2.2 0 0 1 .2-.2h1a.8.8 0 0 1 .8.8c0 .4-.1.7-.5.8l.5 1.1c.1.1 0 .1 0 .1h-.4l-.5-1.1h-.6v1a.1.1 0 0 1-.1.1zm1.4-2a.4.4 0 0 0-.4-.4h-.7v.8h.7c.3.1.4-.1.4-.4z" fill="#262626"/></g></svg>