<?xml version="1.0" encoding="UTF-8"?>
<svg width="65px" height="23px" viewBox="0 0 65 23" version="1.1" xmlns="http://www.w3.org/2000/svg" xmlns:xlink="http://www.w3.org/1999/xlink">
    <!-- Generator: Sketch 43.1 (39012) - http://www.bohemiancoding.com/sketch -->
    <title>Donde Logo</title>
    <desc>Created with Sketch.</desc>
    <defs></defs>
    <g id="Page-1" stroke="none" stroke-width="1" fill="none" fill-rule="evenodd">
        <g id="Desktop-Copy-6" transform="translate(-80.000000, -19.000000)" fill="#7D76FA">
            <g id="Group-29" transform="translate(80.000000, 18.000000)">
                <path d="M57.1092927,20.6904046 C56.6968389,20.1300425 56.457372,19.3029896 56.390544,18.4607169 C56.1656958,15.6270834 57.216844,13.9525693 58.2753015,13.3306366 C58.5930824,13.1431574 58.9119075,13.048726 59.1973186,13.048726 C59.4078963,13.048726 59.6000267,13.1002655 59.7604834,13.204728 C60.2112241,13.4987452 60.40057,14.2133798 60.2797924,15.1646118 C60.0667783,16.842239 58.9084269,19.3168257 57.1092927,20.6904046 M49.4661923,17.9608878 C49.2180238,16.8470816 49.0829756,15.5056716 49.0586113,13.9293938 C48.9837779,9.05908625 50.2169627,3.76435627 51.6461066,2.82108008 C51.7480888,2.75362909 51.832668,2.72146015 51.9193355,2.72146015 C51.9792022,2.72146015 52.0401131,2.73667986 52.1076372,2.76642748 C52.9374178,3.33232402 53.0404442,9.6540386 50.5169924,15.7782428 C50.246548,16.4344199 49.8960492,17.1974809 49.4661923,17.9608878 M43.7162027,21.9591751 C42.1850766,21.6890252 40.6261055,20.0829998 40.8185839,17.1943678 C40.9038592,15.9134907 41.4036767,14.8339289 42.2261479,14.1542305 C42.7757383,13.6997146 43.4426257,13.4582746 44.1342256,13.4582746 C44.2494342,13.4582746 44.3663831,13.4610418 44.4822879,13.4790287 C46.3134438,13.7609393 47.1700251,15.1832905 47.5755177,17.5340441 C47.6433899,17.9249139 47.7523334,18.2881116 47.8529234,18.6347059 C47.9580382,19.0563611 48.0788158,19.4517277 48.2149082,19.8218434 C47.0488994,21.2479995 45.5449222,22.2853612 43.7162027,21.9591751 M23.9810692,17.8809843 C23.9779366,17.93875 23.9706273,17.9944403 23.9661025,18.0515142 C22.5714168,17.8782171 21.1064225,17.0733019 20.6013841,15.9387416 C20.2216481,15.0847083 20.1586488,13.8373838 21.2999451,13.779618 C21.2999451,13.779618 21.3013374,13.7716623 21.3020335,13.765436 C21.9198441,13.8778544 22.4694345,14.1715256 22.9118217,14.6353809 C23.6587635,15.4167747 24.0482452,16.5997613 23.9810692,17.8809843 M20.4712088,22.1321264 L20.4705126,22.9944614 L20.4705126,22.1321264 C19.4433807,22.1321264 18.5620869,21.7675451 17.9213042,21.0774695 C17.2039478,20.3054151 16.8624986,19.2102877 16.9603041,17.9947862 C17.1134516,16.0930141 17.9244368,14.695222 19.1659751,14.0722516 C18.9244198,14.7253155 18.9352097,15.4662388 19.2502061,16.2244571 C19.7977082,17.5419998 21.0949364,18.9923691 23.6869565,19.4313194 C23.1429351,21.0414957 21.9174077,22.1317805 20.4712088,22.1321264 M10.4000255,17.9608878 C10.151509,16.8470816 10.0164609,15.5056716 9.99209649,13.9293938 C9.91726309,9.05908625 11.1504479,3.76435627 12.5795918,2.82108008 C12.681226,2.75362909 12.7661532,2.72146015 12.8528207,2.72146015 C12.9126874,2.72146015 12.9732503,2.73667986 13.0411224,2.76642748 C13.8705549,3.33232402 13.9735814,9.6540386 11.4501295,15.7782428 C11.1800332,16.4344199 10.8291864,17.1974809 10.4000255,17.9608878 M4.64899182,21.9591751 C3.11890986,21.6890252 1.5592426,20.0829998 1.75206913,17.1943678 C1.8373444,15.9134907 2.33750995,14.8339289 3.15963315,14.1542305 C3.70922355,13.6997146 4.37611096,13.4582746 5.06736273,13.4582746 C5.18291942,13.4582746 5.29986836,13.4593123 5.41542505,13.4790287 C7.0711575,13.7647442 7.90963963,14.971944 8.50900295,17.5340441 C8.59949915,17.9200713 8.68616667,18.2881116 8.78675668,18.6347059 C8.89152344,19.0563611 9.011953,19.4517277 9.14874149,19.8218434 C7.98168853,21.2479995 6.47840737,22.2853612 4.64899182,21.9591751 M64.0225065,17.5613704 C63.4809216,17.5613704 63.0427111,18.0414831 63.0427111,18.6347059 C63.0427111,18.9214591 63.1471298,19.180886 63.3141997,19.3732078 C62.6556658,21.2376224 61.2856925,22.1124099 59.6209104,22.0743606 C59.1315348,22.0632918 58.5753312,21.8785798 58.1827169,21.6924842 C60.3842111,19.9681601 61.7479193,17.3749289 62.0013086,15.3808008 C62.2080577,13.7515999 61.7388697,12.4326736 60.71313,11.7633522 C59.769185,11.1479916 58.5276467,11.1787769 57.3915713,11.8467147 C55.4375494,12.9951111 54.4170307,15.51847 54.6610224,18.5963107 C54.7532589,19.7599268 55.0285762,20.713926 55.4963719,21.4361705 C55.5548464,21.5267969 55.6188899,21.6143103 55.6822372,21.7021695 C55.3306943,21.8924159 54.9283342,22.072977 54.5719184,22.1587608 C53.6826192,22.3714909 52.7334533,22.2061495 51.9952131,21.828078 C51.279945,21.4617673 50.665615,20.9200839 50.2089572,20.0688178 C51.3018729,18.4880432 52.2545195,16.4185084 53.0213008,13.9062184 C54.3926663,9.41294454 55.2757004,2.26590652 52.8152479,1.19257098 C52.1013721,0.880912807 51.3450327,0.949401507 50.6861507,1.38454689 C48.4442813,2.8643179 47.325609,8.63500975 47.4195858,13.3693776 C46.8665148,12.662007 45.8480844,11.9017132 44.6845121,11.7664653 C43.393549,11.6163436 42.1266021,11.9930315 41.1165253,12.8283861 C39.9251079,13.8135165 39.2046189,15.3237269 39.0873219,17.0805659 C38.970373,18.8322162 39.3636834,20.2434986 40.0340514,21.3088783 C39.6428294,21.6700006 38.0483559,22.9986122 36.7549563,22.1418116 C35.7139019,21.4517361 36.1709078,19.7931335 36.7111005,17.640582 L36.7605253,17.442034 C37.6630509,13.8349624 36.0971185,12.7055907 35.083213,12.353116 C34.0365896,11.9895725 32.8542219,12.3493111 31.8751226,13.0386948 C31.2868973,13.4530861 30.7895162,14.0054924 30.3659244,14.638494 L30.4508516,13.304348 C30.4637299,12.7657777 30.2628979,12.4423589 29.7585556,12.4070768 C29.3614165,12.3790587 29.1188171,12.6398692 29.0471163,13.1109885 L28.8344502,14.5115478 C28.1755682,16.4966824 26.8974834,17.4804292 25.7147676,17.8823679 C25.7826398,16.1642701 25.2246959,14.5516725 24.169719,13.4482434 C23.1906197,12.4226424 21.9010488,11.913128 20.4228281,11.9964905 C17.5419163,12.158027 15.5043595,14.4589706 15.2311305,17.857117 C15.1225351,19.2026779 15.4204764,20.4555368 16.0664801,21.4811378 C15.8548582,21.7222319 15.5583091,21.9155914 15.1632584,22.0702098 C14.4427694,22.3514286 13.5489453,22.2853612 12.926958,21.8976044 C12.245452,21.4721443 11.5991002,20.9200839 11.1420944,20.0688178 C12.2353581,18.4880432 13.1876567,16.4185084 13.954786,13.9062184 C15.3261515,9.41294454 16.2091856,2.26590652 13.7487331,1.19257098 C13.0348573,0.880912807 12.2785179,0.949401507 11.6196359,1.38454689 C9.37811456,2.8643179 8.27858569,8.75711335 8.37256252,13.4914812 C7.81949149,12.7841106 6.98414192,12.112022 5.58179884,11.838759 C4.3064985,11.5904009 3.06008733,11.9930315 2.04966241,12.8283861 C0.858593155,13.8135165 0.13775609,15.3237269 0.0204590883,17.0805659 C-0.242676026,21.0283514 2.07820352,23.2570014 4.34582954,23.6572106 C6.40044141,24.0193705 8.32104929,23.2587309 9.99035618,21.4998165 C10.5810179,22.3742581 11.3248271,23.006222 12.2238721,23.4033181 C12.8201028,23.6668959 13.4514879,23.7990306 14.0703427,23.7990306 C14.6060106,23.7990306 15.1319328,23.7001025 15.6160875,23.5001708 C16.1402693,23.2846736 16.5899658,22.953299 16.9460336,22.5368323 C17.8826693,23.3884443 19.1168983,23.8567964 20.4705126,23.8567964 L20.4719049,23.8567964 C22.8328116,23.8561045 24.7948389,22.0698639 25.4697317,19.5129524 C26.3837434,19.3714783 27.5671553,18.8526245 28.3231466,17.8778712 L27.5859506,22.732959 C27.5142498,23.2037324 27.7011593,23.6648205 28.1748721,23.7357305 C28.2187279,23.7426485 28.2622357,23.7457616 28.3053955,23.7457616 C28.727247,23.7457616 29.0975853,23.4396379 29.1623249,23.0121024 L29.6026237,20.114131 L29.6026237,20.1137851 L29.6026237,20.1127474 C30.1188001,16.8536538 31.1702964,15.2043905 32.642252,14.322685 C33.2294331,13.971248 33.9523585,13.7872279 34.5106505,13.9812792 C35.0682463,14.1746387 35.6185329,14.8598716 35.0765998,17.0266051 L35.027523,17.2237695 C34.4636621,19.4693687 33.7623165,22.264607 35.9199548,23.5444464 C36.4643243,23.8675193 37.0142628,24 37.5467981,24 C38.9188598,24 40.1732764,23.1217535 40.9042072,22.3680319 C41.6462761,23.0677927 42.5324428,23.5019004 43.4123443,23.6572106 C45.4669562,24.0193705 47.3875641,23.2587309 49.056871,21.4998165 C49.6478808,22.3742581 50.3909938,23.006222 51.2903869,23.4033181 C51.8866176,23.6668959 52.5190469,23.7741256 53.1368575,23.7990306 C53.7379611,23.8239356 54.508223,23.7239698 55.1684972,23.471115 C55.6547403,23.2846736 56.1622152,23.0249008 56.6348838,22.7447197 C56.6554195,22.7623608 56.675259,22.7824231 56.6961428,22.7997182 C57.5607296,23.5108938 58.6345018,23.7817355 59.5899329,23.7986847 C59.6195182,23.7990306 59.6491035,23.7990306 59.6786888,23.7990306 C62.2540019,23.7990306 64.4206898,22.0179785 64.9403469,19.1044415 C64.9500926,19.0487512 64.963319,18.9958281 64.9723686,18.939446 L64.9723686,18.9384083 C64.9765454,18.9135033 64.9828105,18.8930951 64.9862911,18.8664606 C65.0924501,18.0304142 64.5640915,17.5613704 64.0225065,17.5613704" id="Donde-Logo"></path>
            </g>
        </g>
    </g>
</svg>