<?xml version="1.0" encoding="UTF-8"?>
<svg width="497px" height="168px" viewBox="0 0 497 168" version="1.1" xmlns="http://www.w3.org/2000/svg" xmlns:xlink="http://www.w3.org/1999/xlink">
    <!-- Generator: Sketch 41.2 (35397) - http://www.bohemiancoding.com/sketch -->
    <title>rad_logo (1)</title>
    <desc>Created with Sketch.</desc>
    <defs></defs>
    <g id="Page-1" stroke="none" stroke-width="1" fill="none" fill-rule="evenodd">
        <g id="rad_logo-(1)">
            <g id="Group">
                <path d="M303.399,0.24 C303.477,0.678 303.836,0.767 304.184,0.872 C309.196,2.378 311.826,5.978 312.968,10.878 C313.488,13.11 313.66,15.375 313.66,17.666 C313.652,61.463 313.655,105.26 313.655,149.057 C313.655,152.937 313.276,156.748 311.253,160.175 C309.653,162.883 307.273,164.618 304.374,165.883 C302.768,166.584 301.229,166.737 299.569,166.778 C293.01,166.942 287.617,161.376 286.368,156.564 C285.665,153.858 285.383,151.147 285.517,148.373 C285.536,147.987 285.735,147.49 285.27,147.3 C284.769,147.095 284.48,147.575 284.205,147.897 C281.465,151.097 278.408,153.965 275.121,156.595 C269.134,161.384 262.335,164.251 254.85,165.932 C250.239,166.967 245.679,166.782 241.103,166.632 C239.294,166.573 237.413,165.872 235.577,165.414 C221.898,162.004 212.143,153.586 205.411,141.459 C200.705,132.982 198.298,123.775 197.332,114.172 C196.39,104.803 196.655,95.464 198.538,86.227 C201.232,73.013 207.197,61.709 218.303,53.577 C225.371,48.401 233.394,45.809 242.076,45.207 C248.375,44.77 254.636,45.11 260.771,46.717 C266.259,48.155 271.178,50.769 275.675,54.202 C278.765,56.56 281.685,59.104 284.27,62.017 C284.526,62.305 284.799,62.727 285.255,62.538 C285.743,62.336 285.52,61.863 285.505,61.477 C285.48,60.798 285.464,60.119 285.464,59.44 C285.462,45.92 285.456,32.401 285.467,18.882 C285.47,15.265 285.761,11.685 287.216,8.307 C288.761,4.724 291.176,2.048 295.034,0.904 C295.42,0.79 295.821,0.701 295.956,0.24 C298.439,0.24 300.919,0.24 303.399,0.24 Z M226.823,105.61 C226.86,113.902 227.993,121.946 232.088,129.343 C235.612,135.71 240.68,140.376 247.703,142.362 C261.591,146.288 275.102,139.861 280.79,124.758 C282.453,120.341 283.262,115.743 283.61,111.059 C284.271,102.178 283.606,93.462 280.004,85.187 C277.648,79.776 274.318,75.053 269.297,71.791 C260.582,66.131 251.504,65.624 242.406,70.684 C235.124,74.734 231.338,81.561 228.96,89.252 C227.317,94.567 226.836,100.065 226.823,105.61 Z" id="Shape" fill="#0BB6EC"></path>
                <path d="M432.039,1.24 C432.171,1.778 432.649,1.813 433.062,1.937 C436.953,3.103 439.453,5.718 440.906,9.436 C441.984,12.195 442.375,15.067 442.375,18.011 C442.374,62.246 442.376,106.481 442.373,150.717 C442.372,154.783 441.716,158.698 439.323,162.114 C437.744,164.369 435.498,165.709 433.023,166.903 C430.624,168.061 428.172,167.983 425.824,167.633 C423.695,167.317 421.671,166.179 419.903,164.778 C416.714,162.249 415.139,158.834 414.49,154.929 C414.189,153.115 414.079,151.275 414.229,149.431 C414.264,149.003 414.467,148.469 413.939,148.267 C413.438,148.075 413.174,148.568 412.89,148.894 C408.928,153.439 404.531,157.497 399.413,160.718 C394.453,163.841 389.017,165.634 383.305,166.968 C378.814,168.016 374.362,167.833 369.917,167.606 C367.97,167.505 365.901,166.856 363.915,166.336 C350.513,162.836 340.915,154.575 334.235,142.654 C330.643,136.245 328.412,129.369 327.061,122.164 C325.147,111.958 325.058,101.725 326.508,91.476 C327.807,82.304 330.591,73.635 335.936,65.957 C341.377,58.142 348.397,52.266 357.457,49.051 C368.938,44.977 380.53,45.022 392.1,48.546 C397.841,50.295 402.736,53.656 407.273,57.53 C409.281,59.245 411.249,61.003 412.947,63.037 C413.205,63.346 413.496,63.72 413.939,63.555 C414.425,63.374 414.255,62.9 414.242,62.508 C414.213,61.63 414.189,60.751 414.189,59.872 C414.185,46.553 414.192,33.235 414.182,19.916 C414.178,15.713 414.624,11.598 416.634,7.819 C418.181,4.91 420.49,2.852 423.711,1.92 C424.095,1.809 424.51,1.736 424.598,1.24 C427.079,1.24 429.559,1.24 432.039,1.24 Z M412.565,106.863 C412.46,100.518 411.851,94.377 409.635,88.492 C407.243,82.142 403.675,76.664 397.984,72.763 C389.46,66.918 378.23,66.787 369.757,72.487 C363.366,76.787 359.833,83.085 357.672,90.258 C355.75,96.638 355.191,103.198 355.533,109.831 C355.962,118.129 357.684,126.052 362.471,133.067 C370.254,144.472 384.664,147.401 396.042,141.611 C403.765,137.68 407.905,130.933 410.41,122.972 C412.072,117.695 412.418,112.229 412.565,106.863 Z" id="Shape" fill="#0BB6EC"></path>
                <path d="M184.544,108.216 C184.544,113.895 184.58,119.573 184.535,125.252 C184.481,132.037 185.638,138.606 187.725,145.051 C188.733,148.164 189.642,151.328 189.989,154.604 C190.335,157.875 188.988,160.534 186.763,162.799 C184.92,164.676 182.676,165.881 180.285,167.003 C178.205,167.979 176.157,167.899 174.145,167.652 C172.525,167.453 171.023,166.411 169.625,165.448 C166.037,162.978 163.433,159.581 160.928,156.102 C160.041,154.871 159.2,153.602 158.4,152.313 C157.473,150.818 157.311,150.745 155.956,151.785 C150.676,155.841 145.075,159.372 139.045,162.209 C134.351,164.418 129.446,165.941 124.322,166.77 C121.517,167.223 118.774,167.936 115.865,167.808 C111.747,167.626 107.667,167.729 103.583,166.656 C96.43,164.776 89.892,161.868 84.77,156.44 C76.476,147.653 73.766,137.235 76.591,125.521 C79.048,115.335 85.756,108.673 95.009,104.282 C100.276,101.783 105.975,100.864 111.591,99.628 C118.696,98.064 125.844,96.707 132.934,95.065 C139.985,93.432 146.994,91.657 153.943,89.635 C155.1,89.298 155.454,88.741 155.339,87.571 C154.946,83.582 154.401,79.649 152.883,75.885 C151.135,71.549 148.06,68.738 143.553,67.682 C135.457,65.786 127.357,65.931 119.377,68.317 C114.175,69.873 110.394,73.421 107.292,77.726 C105.331,80.448 103.458,83.237 101.616,86.042 C100.305,88.038 98.482,89.024 96.155,89.279 C91.627,89.774 87.469,89.124 84.073,85.73 C82.009,83.666 80.968,81.192 80.911,78.314 C80.789,72.14 83.182,66.859 86.896,62.109 C90.604,57.366 95.527,54.196 100.896,51.661 C109.892,47.413 119.481,45.91 129.317,45.644 C136.964,45.438 144.601,45.642 152.16,46.934 C159.274,48.151 166.1,50.155 171.931,54.691 C176.632,58.348 179.696,63.113 181.547,68.712 C183.869,75.734 184.655,82.992 184.731,90.341 C184.792,96.299 184.743,102.259 184.743,108.218 C184.677,108.216 184.61,108.216 184.544,108.216 Z M155.394,114.503 C155.394,112.585 155.391,110.667 155.395,108.748 C155.398,107.567 155.06,107.349 153.927,107.799 C153.446,107.991 152.957,108.17 152.463,108.325 C142.649,111.411 132.502,113.115 122.522,115.515 C118.445,116.496 114.582,117.769 111.132,120.297 C105.899,124.135 104.443,129.628 105.997,135.508 C107.756,142.163 112.492,146.241 119.205,147.441 C128.412,149.086 136.905,146.891 144.527,141.488 C149.27,138.127 152.348,133.591 153.767,127.926 C154.872,123.516 155.236,119.026 155.394,114.503 Z" id="Shape" fill="#0BB6EC"></path>
                <path d="M0.81,107.082 L0.81,59.925 C1.844,54.87 3.331,50.096 8.205,47.266 C14.393,43.672 23.559,45.953 26.821,52.028 C28.535,55.219 29.07,58.752 29.318,62.327 C29.346,62.74 29.122,63.314 29.71,63.443 C30.283,63.568 30.35,62.964 30.561,62.604 C33.08,58.297 36.064,54.354 39.779,51.006 C44.261,46.967 49.695,45.737 55.55,45.742 C62.829,45.747 69.536,47.758 75.663,51.596 C80.189,54.431 82.895,58.386 82.537,64.027 C82.183,69.599 77.372,74.788 71.823,75.479 C69.926,75.715 68.171,75.107 66.417,74.6 C63.23,73.678 60.086,72.601 56.817,71.99 C53.036,71.282 49.264,71.166 45.551,72.394 C40.943,73.918 38.025,77.278 36.027,81.49 C33.285,87.271 32.136,93.487 31.503,99.793 C30.631,108.477 30.424,117.193 30.46,125.918 C30.493,134.037 30.483,142.156 30.448,150.276 C30.43,154.346 29.65,158.251 27.263,161.647 C25.517,164.131 23.056,165.636 20.283,166.904 C17.788,168.045 15.271,167.976 12.84,167.633 C10.672,167.327 8.581,166.213 6.776,164.803 C4.204,162.793 2.674,160.137 1.542,157.089 C0.8,155.093 0.782,153.134 0.78,151.12 C0.767,136.441 0.773,121.762 0.773,107.083 C0.784,107.082 0.797,107.082 0.81,107.082 Z" id="Shape" fill="#0BB6EC"></path>
                <path d="M496.83,151.216 C496.83,151.655 496.814,152.096 496.832,152.535 C497.093,158.987 493.469,162.938 488.279,165.927 C484.99,167.822 481.383,168.283 477.816,167.617 C475.601,167.204 473.396,166.174 471.418,164.868 C465.667,161.074 463.659,155.52 464.426,149.003 C465.229,142.175 469.09,137.475 475.678,135.28 C483.041,132.826 491.392,136.302 495.274,143.057 C496.778,145.678 496.979,148.37 496.83,151.216 Z" id="Shape" fill="#0BB6EC"></path>
                <path d="M226.822,106.609 C226.836,101.065 227.317,95.567 228.96,90.252 C231.337,82.561 235.124,75.734 242.406,71.684 C251.504,66.624 260.582,67.131 269.297,72.791 C274.318,76.053 277.648,80.776 280.004,86.187 C283.607,94.462 284.272,103.177 283.61,112.059 C283.261,116.744 282.453,121.341 280.79,125.758 C275.102,140.861 261.591,147.287 247.703,143.362 C240.68,141.377 235.612,136.711 232.088,130.343 C227.994,122.946 226.86,114.902 226.822,106.609 Z" id="Shape"></path>
                <path d="M412.565,106.863 C412.418,112.229 412.072,117.696 410.412,122.972 C407.907,130.933 403.766,137.68 396.044,141.611 C384.666,147.401 370.256,144.472 362.473,133.067 C357.686,126.052 355.963,118.129 355.535,109.831 C355.192,103.198 355.752,96.638 357.674,90.258 C359.835,83.085 363.368,76.786 369.759,72.487 C378.232,66.787 389.461,66.918 397.986,72.763 C403.677,76.665 407.246,82.142 409.637,88.492 C411.852,94.377 412.46,100.518 412.565,106.863 Z" id="Shape"></path>
                <path d="M155.394,114.503 C155.237,119.026 154.872,123.516 153.767,127.927 C152.348,133.591 149.269,138.127 144.527,141.489 C136.905,146.892 128.412,149.087 119.205,147.442 C112.492,146.243 107.757,142.165 105.997,135.509 C104.443,129.629 105.899,124.136 111.132,120.298 C114.581,117.77 118.445,116.497 122.522,115.516 C132.501,113.116 142.649,111.412 152.463,108.326 C152.958,108.17 153.446,107.992 153.927,107.8 C155.06,107.35 155.399,107.568 155.395,108.749 C155.39,110.667 155.394,112.585 155.394,114.503 Z" id="Shape"></path>
            </g>
        </g>
    </g>
</svg>