<?xml version="1.0" encoding="UTF-8"?>
<svg width="185px" height="39px" viewBox="0 0 185 39" version="1.1" xmlns="http://www.w3.org/2000/svg" xmlns:xlink="http://www.w3.org/1999/xlink">
    <!-- Generator: sketchtool 53.2 (72643) - https://sketchapp.com -->
    <title>16554434-7134-44E1-BD2A-090A720AB67F</title>
    <desc>Created with sketchtool.</desc>
    <defs>
        <linearGradient x1="29.0320376%" y1="50.0613826%" x2="87.3585991%" y2="26.1206594%" id="linearGradient-1">
            <stop stop-color="#00B19C" offset="0%"></stop>
            <stop stop-color="#180E7C" offset="100%"></stop>
        </linearGradient>
    </defs>
    <g id="Page-2" stroke="none" stroke-width="1" fill="none" fill-rule="evenodd">
        <g id="Homepage-D" transform="translate(-50.000000, -20.000000)">
            <g id="logo-horizantal-gradient" transform="translate(50.000000, 20.000000)">
                <g>
                    <path d="M22.7371794,26.6875844 C21.8070567,23.6370491 21.2220187,20.1925232 20.712609,17.1930333 L20.6714725,16.9525789 C20.5623444,16.3122468 20.4567866,15.6914739 20.3509184,15.0986428 L20.1514452,13.9663805 C19.9564738,12.8553849 19.7931697,11.7245196 19.6349883,10.6315309 C18.9364442,5.79962366 18.3327468,1.62683161 15.5497471,1.62683161 C15.2187924,1.62683161 14.9493096,1.35781452 14.9493096,1.02685984 C14.9493096,0.695439469 15.2187924,0.425801443 15.5497471,0.425801443 C19.3079144,0.425801443 20.0550461,5.40642094 20.8462638,10.6791871 C20.9979255,11.6894371 21.1545546,12.7347696 21.3338476,13.7569725 L21.5325446,14.8887691 C21.6433802,15.5089211 21.7545263,16.1604299 21.8684667,16.8319636 L21.8953218,16.9892137 C22.2935255,19.3319915 22.7405473,21.9622523 23.355417,24.4313316 C23.9472286,22.0152042 24.382056,19.4561345 24.7703741,17.1706799 L24.8312251,16.8139567 C24.933523,16.2130535 25.0327162,15.6290707 25.1329961,15.0689935 L25.3318483,13.9423195 C25.5170402,12.8853446 25.6759977,11.8078792 25.8304536,10.7653409 C26.5979207,5.5700355 27.3237857,0.663151208 31.0600653,0.663151208 C31.39102,0.663151208 31.6600371,0.932789234 31.6600371,1.26358868 C31.6600371,1.59500905 31.39102,1.86449184 31.0600653,1.86449184 C28.2984876,1.86449184 27.716057,5.96385914 27.0412634,10.710544 C26.8818401,11.8352 26.7162075,12.9981983 26.5151821,14.1448973 L26.3152432,15.2788672 C26.2177575,15.8262153 26.1202718,16.3965378 26.0204576,16.9833148 L25.9537078,17.3717054 C25.4542518,20.3125936 24.8821599,23.6813117 23.9852995,26.6871996 C24.3793367,27.9392286 24.832878,29.1037714 25.3645268,30.1107049 C26.7983063,26.2739944 27.6405551,21.244584 28.3022131,17.2928475 L28.7016251,14.9164004 C28.8664815,13.924623 29.0167461,12.9194957 29.1623538,11.9469671 C30.075739,5.84076015 30.8644729,0.566752121 34.7109673,0.566752121 C35.0417667,0.566752121 35.3114047,0.835769219 35.3114047,1.16656866 C35.3114047,1.49798903 35.0417667,1.76762706 34.7109673,1.76762706 C31.8489544,1.76762706 31.1252627,6.74141635 30.3588822,12.0071971 C30.2104804,13.0306418 30.0558693,14.0890138 29.8855798,15.1140108 L29.4872544,17.4850248 C28.7335457,21.989182 27.827853,27.3993846 26.1539765,31.3995015 C26.6231876,32.0526741 27.1440637,32.5926171 27.725161,32.9870788 C29.8773645,28.6040718 31.0536727,21.4619694 31.8714631,16.4979043 L32.0703153,15.2712609 C32.1909306,14.5267681 32.3059575,13.7794811 32.4203635,13.0382482 C33.4119857,6.59891335 34.34819,0.516301713 38.361714,0.516301713 C38.6925134,0.516301713 38.9621515,0.785939739 38.9621515,1.11673918 C38.9621515,1.44815955 38.6925134,1.71779758 38.361714,1.71779758 C35.3502127,1.71779758 34.4720652,7.50189804 33.6234117,13.0958393 C33.5027964,13.8873674 33.3828021,14.6807582 33.2564432,15.4618858 L33.0574357,16.6852694 C32.2293067,21.714005 31.0505623,28.8740789 28.7487536,33.5035495 C29.1102373,33.6275905 29.491782,33.7011855 29.894856,33.7188003 C32.9677419,29.4294644 34.6050265,19.7729133 35.2421712,16.0135804 L35.6401862,13.6206787 C36.7510265,6.85861653 37.8013264,0.471439658 42.0124608,0.471439658 C42.3434154,0.471439658 42.6128982,0.740922452 42.6128982,1.07187713 C42.6128982,1.40267657 42.3434154,1.6723146 42.0124608,1.6723146 C38.8125078,1.6723146 37.8101746,7.79699412 36.8404402,13.7208034 C36.7691887,14.1542112 36.6984029,14.5859115 36.6273066,15.0141966 L36.4267468,16.2063786 C35.8109414,19.8451724 34.816525,25.1745983 33.2974244,29.4257825 C32.7783862,30.8796915 32.2242524,32.1270293 31.6365004,33.1660742 C33.5501707,31.8489189 36.3457083,27.627187 38.6142765,14.8878378 L38.8125078,13.7608533 C39.9713149,7.14626147 41.5742407,0.089568878 45.9443327,0.089568878 C46.2751321,0.089568878 46.5447702,0.359051672 46.5447702,0.689851116 C46.5447702,1.02096102 46.2751321,1.29044382 45.9443327,1.29044382 C42.6683161,1.29044382 41.1490602,7.38299031 39.9953758,13.9668462 L39.7965236,15.0975562 C38.5125462,22.3079209 35.6138401,34.2926649 30.4708554,34.9000295 C29.3251672,36.30486 28.071433,37.0173107 26.718536,37.0270291 C26.5402362,37.0260595 26.3654691,37.0158624 26.1941458,36.9967723 C25.3521248,37.6923845 24.4086547,38.0906748 23.3481383,38.0975091 C22.3259342,38.0909541 21.4122315,37.724299 20.5931344,37.0805998 C20.4234895,37.1028732 20.2504174,37.1163293 20.0738292,37.120634 L20.0732083,37.1234281 L19.9642354,37.1223415 L19.8282522,37.1229624 L19.8282522,37.1195473 C18.5720549,37.0689406 17.4065403,36.3966225 16.3266954,35.0917725 C13.9761234,34.8835353 11.8585052,32.2846596 10.0017546,27.3599547 C8.4634052,23.2773525 7.44942961,18.5374979 6.86917231,15.2799538 L6.66969916,14.1487781 C5.51648045,7.56492224 3.99800079,1.47175482 0.721828913,1.47175482 C0.390563773,1.47175482 0.120925747,1.20227203 0.120925747,0.871472584 C0.120925747,0.53989698 0.390563773,0.270414186 0.721828913,0.270414186 C5.09145516,0.270414186 6.69391535,7.32757247 7.85256718,13.9423195 L8.05079848,15.0702354 C8.54505724,17.8395747 9.6253169,23.1295716 11.3105158,27.4344661 C12.5421389,30.578328 13.8690058,32.6216425 15.2100706,33.4646213 C13.2570311,30.103716 11.6117302,24.4084421 10.2389491,16.3027777 L10.0394759,15.1118376 C9.96837967,14.6816896 9.89712817,14.248437 9.82587667,13.812856 C8.85521083,7.89137519 7.85148056,1.76762706 4.65307993,1.76762706 C4.32228048,1.76762706 4.05279769,1.49798903 4.05279769,1.16656866 C4.05279769,0.835769219 4.32228048,0.566752121 4.65307993,0.566752121 C8.86328289,0.566752121 9.91296184,6.95020342 11.0245784,13.7082296 L11.4229037,16.1023731 C12.9405673,25.0620403 14.7599804,31.0128043 16.8557813,33.8957671 C17.2587959,33.8701828 17.640067,33.7881739 18.0010952,33.6553989 C15.6411344,29.0320724 14.4456556,21.7700354 13.6087259,16.686356 L13.4092527,15.4618858 C13.2827386,14.6807582 13.1622786,13.8869017 13.0422842,13.0945974 C12.1925441,7.50127711 11.3142413,1.71779758 8.30398191,1.71779758 C7.97302723,1.71779758 7.70354444,1.44815955 7.70354444,1.11673918 C7.70354444,0.785939739 7.97302723,0.516301713 8.30398191,0.516301713 C12.3179716,0.516301713 13.2541759,6.59891335 14.2453324,13.0388691 C14.3592727,13.7794811 14.4744549,14.5255262 14.5947597,15.2697085 L14.7936119,16.4912293 C15.5709917,21.2129164 16.7926094,28.6301698 19.0370579,33.1018124 C19.6135159,32.6899077 20.1298072,32.1332802 20.5945767,31.4645273 C18.8628515,27.4307755 17.9350985,21.9005522 17.1647811,17.3086812 L16.7807371,15.0176117 C16.6096714,13.9926147 16.4553707,12.9340875 16.3068137,11.910798 C15.5404332,6.64563819 14.8167415,1.6723146 11.9547287,1.6723146 C11.6239292,1.6723146 11.3544464,1.40267657 11.3544464,1.07187713 C11.3544464,0.740922452 11.6239292,0.471439658 11.9547287,0.471439658 C15.8001364,0.471439658 16.5894912,5.74436106 17.5033421,11.850568 C17.6484841,12.8223204 17.7992144,13.828224 17.9645365,14.8200014 L18.3481148,17.1070348 C19.0245433,21.1400483 19.8883753,26.2898339 21.3671116,30.1667075 C21.8958624,29.1399669 22.3462255,27.9564056 22.7371794,26.6875844 Z M23.3686642,28.5425989 C22.9594061,29.6446837 22.4922373,30.6655484 21.9520517,31.5578225 C22.3785067,32.4737193 22.8501936,33.2832374 23.3746383,33.9443095 C23.8993044,33.2629684 24.3701357,32.4325656 24.7949867,31.4964971 C24.2517854,30.6246769 23.7812664,29.6247187 23.3686642,28.5425989 Z M25.596294,32.6187806 C25.1800727,33.4488143 24.7213601,34.1944594 24.2130619,34.8290499 C24.7214731,35.2673996 25.2733783,35.5752328 25.8738513,35.7241883 C26.3322548,35.2727119 26.757768,34.7045853 27.1534419,34.0442066 C26.5832781,33.6705749 26.0664433,33.1885373 25.596294,32.6187806 Z M28.1708999,34.5694841 C27.9222614,34.9884934 27.6617817,35.3784725 27.3886895,35.734766 C27.9451986,35.5870691 28.4686049,35.2652321 28.9602787,34.8046984 C28.6876756,34.7465198 28.4246924,34.6676696 28.1708999,34.5694841 Z M24.701699,36.5747945 C24.2378758,36.3569475 23.8040024,36.0648309 23.3974992,35.7081591 C22.9902589,36.0820067 22.5549473,36.3900898 22.0888448,36.6221865 C22.4834348,36.7996019 22.898045,36.8949243 23.333857,36.8966342 C23.8158633,36.8948001 24.2712108,36.7827232 24.701699,36.5747945 Z M22.5585941,34.8380064 C22.0493427,34.2229298 21.5888544,33.4978537 21.1703105,32.6884565 C20.7038618,33.2745049 20.1906423,33.7726676 19.623883,34.1617174 C20.0191413,34.8048246 20.4429769,35.3567383 20.8979104,35.7928835 C21.4992327,35.6247056 22.0510361,35.2967016 22.5585941,34.8380064 Z M18.5948338,34.719344 C18.3395849,34.82338 18.0749216,34.9075313 17.8003948,34.9703886 C18.3130154,35.4360626 18.8407575,35.7311123 19.3832896,35.8547686 C19.1081052,35.5085277 18.8455411,35.128532 18.5948338,34.719344 Z" id="Combined-Shape" fill="url(#linearGradient-1)"></path>
                    <g id="Group-44" transform="translate(48.432392, 8.692993)" fill="#2F3957">
                        <polygon id="Fill-31" points="0.152577557 6.60698542 3.05696873 6.60698542 7.02159463 16.7428604 10.8188804 6.60698542 13.4997375 6.60698542 8.3064501 19.8420678 5.54145728 19.8420678"></polygon>
                        <path d="M17.7434395,13.2245111 C17.7434395,13.8944925 17.8454269,14.5138683 18.0511094,15.0810861 C18.2552395,15.6490801 18.5435054,16.1327831 18.9166831,16.5332817 C19.2883086,16.9337803 19.744846,17.2499879 20.284743,17.4829912 C20.82464,17.7159945 21.4292687,17.8319528 22.0992501,17.8319528 C22.7700077,17.8319528 23.3746364,17.7159945 23.9145334,17.4829912 C24.4544304,17.2499879 24.9101916,16.9337803 25.2825932,16.5332817 C25.6549949,16.1327831 25.9432607,15.6490801 26.148167,15.0810861 C26.3530733,14.5138683 26.4558369,13.8944925 26.4558369,13.2245111 C26.4558369,12.5545297 26.3530733,11.9359301 26.148167,11.3679361 C25.9432607,10.7999421 25.6549949,10.3162391 25.2825932,9.91574049 C24.9101916,9.51524187 24.4544304,9.19903424 23.9145334,8.96603097 C23.3746364,8.73380386 22.7700077,8.61706938 22.0992501,8.61706938 C21.4292687,8.61706938 20.82464,8.73380386 20.284743,8.96603097 C19.744846,9.19903424 19.2883086,9.51524187 18.9166831,9.91574049 C18.5435054,10.3162391 18.2552395,10.7999421 18.0511094,11.3679361 C17.8454269,11.9359301 17.7434395,12.5545297 17.7434395,13.2245111 M15.0633586,13.2245111 C15.0633586,12.2569499 15.2448248,11.3539652 15.6079125,10.515557 C15.9710002,9.67808026 16.4688294,8.94336709 17.1013999,8.31002043 C17.7339703,7.67744993 18.4787736,7.17962083 19.3350334,6.81653313 C20.1912933,6.45344542 21.1129058,6.27197919 22.0992501,6.27197919 C23.0863705,6.27197919 24.0072069,6.45344542 24.8642429,6.81653313 C25.7195714,7.17962083 26.4643746,7.67744993 27.0978765,8.31002043 C27.730447,8.94336709 28.2282761,9.67808026 28.5913638,10.515557 C28.9544515,11.3539652 29.1359178,12.2569499 29.1359178,13.2245111 C29.1359178,14.1928485 28.9544515,15.0997139 28.5913638,15.9466599 C28.2282761,16.7942267 27.730447,17.5289399 27.0978765,18.1529726 C26.4643746,18.7762292 25.7195714,19.2694013 24.8642429,19.6324891 C24.0072069,19.9955768 23.0863705,20.177043 22.0992501,20.177043 C21.1129058,20.177043 20.1912933,19.9955768 19.3350334,19.6324891 C18.4787736,19.2694013 17.7339703,18.7762292 17.1013999,18.1529726 C16.4688294,17.5289399 15.9710002,16.7942267 15.6079125,15.9466599 C15.2448248,15.0997139 15.0633586,14.1928485 15.0633586,13.2245111" id="Fill-33"></path>
                        <path d="M32.4866476,19.8420678 L35.0000093,19.8420678 L35.0000093,6.60698542 L32.4866476,6.60698542 L32.4866476,19.8420678 Z M31.900181,1.85999012 C31.900181,1.35750405 32.0816472,0.924406705 32.4445797,0.561319 C32.8076674,0.199007455 33.24092,0.0175412187 33.743406,0.0175412187 C34.2458921,0.0175412187 34.6782133,0.199007455 35.041301,0.561319 C35.4043887,0.924406705 35.5858549,1.35750405 35.5858549,1.85999012 C35.5858549,2.36263141 35.4043887,2.79572876 35.041301,3.15881646 C34.6782133,3.52190417 34.2458921,3.70259424 33.743406,3.70259424 C33.24092,3.70259424 32.8076674,3.52190417 32.4445797,3.15881646 C32.0816472,2.79572876 31.900181,2.36263141 31.900181,1.85999012 L31.900181,1.85999012 Z" id="Fill-35"></path>
                        <path d="M48.4578652,10.1253348 C47.9920138,9.64147655 47.5034987,9.27373189 46.9916987,9.02210078 C46.4797435,8.77046966 45.870613,8.64504219 45.1630654,8.64504219 C44.4744562,8.64504219 43.8737082,8.77046966 43.3619083,9.02210078 C42.8501083,9.27373189 42.4215127,9.61803652 42.077208,10.0551699 C41.7329034,10.4930794 41.4725793,10.9955655 41.29577,11.5627833 C41.1189607,12.1313982 41.030168,12.7220561 41.030168,13.3359987 C41.030168,13.9505623 41.1321555,14.5325272 41.3378379,15.0811171 C41.541968,15.630328 41.8302339,16.1101502 42.2034117,16.5191866 C42.5750371,16.9289992 43.0222606,17.250019 43.5433745,17.482867 C44.0646436,17.7158703 44.6504893,17.8319838 45.302619,17.8319838 C46.0100114,17.8319838 46.6144849,17.7057802 47.1179023,17.4549253 C47.6203884,17.2032942 48.0854635,16.8363256 48.5139039,16.3516913 L50.3004693,18.1390328 C49.6491157,18.865053 48.8903416,19.3863221 48.0246126,19.7025297 C47.159194,20.0188926 46.2422385,20.1769188 45.274522,20.1769188 C44.2507668,20.1769188 43.3151834,20.0095787 42.4683927,19.674588 C41.6214468,19.339442 40.8906144,18.8697099 40.2766718,18.2644603 C39.6621082,17.6598315 39.1875639,16.9336561 38.8525732,16.0868654 C38.5175825,15.2399195 38.3500871,14.3043361 38.3500871,13.2805809 C38.3500871,12.2568257 38.5175825,11.3165853 38.8525732,10.4603255 C39.1875639,9.60406563 39.6574512,8.86873154 40.2627009,8.25401272 C40.8673296,7.64007006 41.5933498,7.1608688 42.4402957,6.81656417 C43.2870864,6.47225954 44.232139,6.299952 45.274522,6.299952 C46.2422385,6.299952 47.168508,6.47225954 48.0527096,6.81656417 C48.9370664,7.1608688 49.7043783,7.6867949 50.356508,8.39418724 L48.4578652,10.1253348 Z" id="Fill-37"></path>
                        <path d="M62.2795694,12.1353101 C62.2607863,11.5767852 62.1719936,11.06483 62.0139674,10.5997549 C61.8557859,10.1346797 61.6181257,9.72952416 61.3017628,9.38521953 C60.9855552,9.04075966 60.5897135,8.77050071 60.1153245,8.57568452 C59.6407802,8.3802474 59.0869123,8.28198553 58.4541866,8.28198553 C57.8394678,8.28198553 57.276286,8.39887524 56.764486,8.63110235 C56.2525308,8.86395039 55.8194334,9.16634237 55.4664358,9.53858877 C55.1128173,9.91099039 54.8377461,10.3254599 54.6429299,10.7812211 C54.4474928,11.2379137 54.3492309,11.689018 54.3492309,12.1353101 L62.2795694,12.1353101 Z M54.3492309,14.1461857 C54.3492309,14.7234936 54.4755898,15.2484883 54.7262895,15.7238088 C54.9779206,16.1981978 55.3082544,16.6033534 55.717446,16.9383441 C56.1271033,17.2733348 56.6016476,17.5344351 57.1415446,17.7197821 C57.6814416,17.9059053 58.2399664,17.9995103 58.8172743,17.9995103 C59.5987123,17.9995103 60.2780076,17.8178888 60.8553155,17.4549563 C61.4320025,17.0918686 61.9624303,16.6126673 62.4470647,16.0167316 L64.3457076,17.4689272 C62.9495508,19.2741204 60.9948691,20.1769499 58.4822836,20.1769499 C57.4391244,20.1769499 56.494848,20.0001406 55.6480573,19.646522 C54.8003352,19.2935244 54.0844051,18.8042331 53.4977833,18.1809765 C52.9110062,17.5569437 52.4600572,16.8222306 52.1436943,15.9746637 C51.8267105,15.1277178 51.66915,14.2115384 51.66915,13.2245732 C51.66915,12.2382289 51.8406814,11.3211181 52.1857622,10.4743274 C52.5292907,9.62753672 53.0046111,8.89204739 53.6092399,8.26801465 C54.2144895,7.64475807 54.9358528,7.15624289 55.7734848,6.80246911 C56.6109615,6.44885055 57.5232601,6.27204128 58.5096044,6.27204128 C59.6828481,6.27204128 60.6738493,6.47679232 61.4833843,6.88598394 C62.2935402,7.29564125 62.9588647,7.83088127 63.4801338,8.49154876 C64.0012477,9.15221626 64.3776854,9.89701951 64.6105334,10.7251824 C64.8435367,11.5541214 64.9596503,12.3964103 64.9596503,13.2525149 L64.9596503,14.1461857 L54.3492309,14.1461857 Z" id="Fill-38"></path>
                        <path d="M75.0120881,9.92977347 C74.7137321,9.55737184 74.3458322,9.24566594 73.9088541,8.99403483 C73.4710998,8.74317987 72.9358598,8.61697624 72.303134,8.61697624 C71.7071983,8.61697624 71.1905861,8.74317987 70.753608,8.99403483 C70.3164746,9.24566594 70.0975974,9.6134106 70.0975974,10.0972688 C70.0975974,10.4884535 70.2230249,10.8046612 70.474656,11.0462022 C70.725511,11.2885194 71.023246,11.4841117 71.3683268,11.632824 C71.7126314,11.7824677 72.0803761,11.893769 72.4706294,11.9678147 C72.8618141,12.0426366 73.1968048,12.1072131 73.4765329,12.1634071 C74.0156537,12.2934915 74.5235729,12.4524491 74.9981172,12.6377961 C75.4725063,12.8240746 75.8815426,13.0663918 76.2266234,13.3639715 C76.5709281,13.6623275 76.8405661,14.0254152 77.0361584,14.4530794 C77.2315956,14.8815198 77.3298574,15.4020128 77.3298574,16.0167316 C77.3298574,16.7615349 77.1708998,17.3987623 76.854537,17.9293454 C76.5383293,18.4599284 76.1285168,18.8922496 75.6260307,19.2280165 C75.1233894,19.5631624 74.5508937,19.8045482 73.9088541,19.9534157 C73.2669697,20.1022833 72.6194969,20.1769499 71.9681433,20.1769499 C70.8697215,20.1769499 69.906662,20.0096097 69.0784992,19.6744638 C68.2497154,19.3394731 67.5103453,18.7247543 66.8589917,17.8320149 L68.7576346,16.2675866 C69.166671,16.6773991 69.6232084,17.0404868 70.1256944,17.3566944 C70.6281805,17.6738335 71.2421231,17.8320149 71.9681433,17.8320149 C72.2845062,17.8320149 72.605526,17.7992609 72.931979,17.733753 C73.2567243,17.6691765 73.5457664,17.5662577 73.7973975,17.4268593 C74.0484077,17.2873057 74.2531587,17.1104964 74.4113401,16.8962763 C74.5695216,16.6820561 74.6490004,16.4358581 74.6490004,16.15613 C74.6490004,15.7837283 74.5321107,15.4768346 74.3000388,15.2345174 C74.0670355,14.9929764 73.7873074,14.8021962 73.462562,14.6626427 C73.1361091,14.5224681 72.7924254,14.4110115 72.4293377,14.3276519 C72.0664052,14.2435162 71.7453854,14.1733513 71.4656573,14.1180887 C70.9257603,13.9880043 70.4139603,13.8383606 69.9301021,13.6708653 C69.4456229,13.5033699 69.0178035,13.2806119 68.6454018,13.0008838 C68.2730002,12.7219319 67.9754204,12.3683133 67.7517311,11.939873 C67.5289731,11.5120535 67.4167404,10.9814704 67.4167404,10.3481238 C67.4167404,9.66029067 67.5609509,9.05954274 67.8499929,8.54774276 C68.1382588,8.03578754 68.5199744,7.61200411 68.9943634,7.2770134 C69.4696839,6.9420227 70.0088047,6.69039158 70.6140544,6.52289623 C71.2186831,6.35540088 71.828745,6.27204128 72.4434638,6.27204128 C73.3363584,6.27204128 74.192463,6.43953663 75.0120881,6.77452734 C75.8307818,7.10951805 76.4821353,7.66804287 76.9667697,8.44948088 L75.0120881,9.92977347 Z" id="Fill-39"></path>
                        <path d="M90.2010294,12.1353101 C90.1824015,11.5767852 90.0936088,11.06483 89.9352722,10.5997549 C89.777246,10.1346797 89.5395857,9.72952416 89.2232229,9.38521953 C88.9070152,9.04075966 88.5111736,8.77050071 88.0367845,8.57568452 C87.5622402,8.3802474 87.0083723,8.28198553 86.3756466,8.28198553 C85.7609278,8.28198553 85.1979012,8.39887524 84.685946,8.63110235 C84.174146,8.86395039 83.7408935,9.16634237 83.3878958,9.53858877 C83.0342773,9.91099039 82.7592061,10.3254599 82.5645452,10.7812211 C82.3689528,11.2379137 82.2708462,11.689018 82.2708462,12.1353101 L90.2010294,12.1353101 Z M82.2708462,14.1461857 C82.2708462,14.7234936 82.3970498,15.2484883 82.6477496,15.7238088 C82.8993807,16.1981978 83.2298696,16.6033534 83.638906,16.9383441 C84.0485633,17.2733348 84.5231076,17.5344351 85.0628494,17.7197821 C85.6029016,17.9059053 86.1615817,17.9995103 86.7387343,17.9995103 C87.5201723,17.9995103 88.1994677,17.8178888 88.7767756,17.4549563 C89.3533073,17.0918686 89.8838904,16.6126673 90.3685247,16.0167316 L92.2671676,17.4689272 C90.8710108,19.2741204 88.9163292,20.1769499 86.4037436,20.1769499 C85.3605844,20.1769499 84.416308,20.0001406 83.5693621,19.646522 C82.7217952,19.2935244 82.0058651,18.8042331 81.4192433,18.1809765 C80.8326215,17.5569437 80.3815172,16.8222306 80.0651544,15.9746637 C79.7481706,15.1277178 79.5907653,14.2115384 79.5907653,13.2245732 C79.5907653,12.2382289 79.7621415,11.3211181 80.1072222,10.4743274 C80.4507507,9.62753672 80.9260712,8.89204739 81.5306999,8.26801465 C82.1359496,7.64475807 82.8573128,7.15624289 83.6949448,6.80246911 C84.5324216,6.44885055 85.4447202,6.27204128 86.4310644,6.27204128 C87.6043081,6.27204128 88.5953093,6.47679232 89.4048443,6.88598394 C90.2150003,7.29564125 90.8803247,7.83088127 91.4015939,8.49154876 C91.922863,9.15221626 92.2991454,9.89701951 92.5321487,10.7251824 C92.7649967,11.5541214 92.8811103,12.3964103 92.8811103,13.2525149 L92.8811103,14.1461857 L82.2708462,14.1461857 Z" id="Fill-40"></path>
                        <path d="M95.8968494,6.60698542 L98.4100559,6.60698542 L98.4100559,8.64502666 L98.4654737,8.64502666 C98.7818366,7.93763433 99.3310475,7.36575955 100.113262,6.92800524 C100.894544,6.49087186 101.797684,6.27199471 102.821284,6.27199471 C103.45401,6.27199471 104.063917,6.36932519 104.650694,6.56491754 C105.237316,6.76050989 105.748339,7.0635228 106.186094,7.47255919 C106.623227,7.88237173 106.972344,8.40829783 107.233289,9.05018225 C107.493458,9.6922219 107.624318,10.450996 107.624318,11.3258837 L107.624318,19.8420678 L105.110957,19.8420678 L105.110957,12.0239621 C105.110957,11.4092433 105.027597,10.8840934 104.860102,10.4463391 C104.692606,10.0092057 104.469072,9.65558714 104.190276,9.38517296 C103.910547,9.11569016 103.589528,8.92009781 103.22644,8.79855114 C102.863352,8.67778062 102.486294,8.6170849 102.09604,8.6170849 C101.573995,8.6170849 101.090137,8.70122066 100.643845,8.86871601 C100.196621,9.03605613 99.8063679,9.3010372 99.471222,9.6641249 C99.1362313,10.0272126 98.8752862,10.488407 98.6890078,11.0461556 C98.5028846,11.6048357 98.4100559,12.2662793 98.4100559,13.0289343 L98.4100559,19.8420678 L95.8968494,19.8420678 L95.8968494,6.60698542 Z" id="Fill-41"></path>
                        <path d="M118.458256,9.92977347 C118.1599,9.55737184 117.792156,9.24566594 117.355178,8.99403483 C116.917268,8.74317987 116.382028,8.61697624 115.749457,8.61697624 C115.153366,8.61697624 114.63691,8.74317987 114.199776,8.99403483 C113.762798,9.24566594 113.543921,9.6134106 113.543921,10.0972688 C113.543921,10.4884535 113.669193,10.8046612 113.920979,11.0462022 C114.171834,11.2885194 114.469414,11.4841117 114.814495,11.632824 C115.1588,11.7824677 115.526544,11.893769 115.916953,11.9678147 C116.307982,12.0426366 116.643128,12.1072131 116.922701,12.1634071 C117.461822,12.2934915 117.969896,12.4524491 118.444285,12.6377961 C118.918674,12.8240746 119.327711,13.0663918 119.672792,13.3639715 C120.017252,13.6623275 120.286734,14.0254152 120.482327,14.4530794 C120.677919,14.8815198 120.776026,15.4020128 120.776026,16.0167316 C120.776026,16.7615349 120.617068,17.3987623 120.300705,17.9293454 C119.984498,18.4599284 119.574685,18.8922496 119.072199,19.2280165 C118.569713,19.5631624 117.997062,19.8045482 117.355178,19.9534157 C116.713138,20.1022833 116.065665,20.1769499 115.414467,20.1769499 C114.31589,20.1769499 113.35283,20.0096097 112.524667,19.6744638 C111.695884,19.3394731 110.956513,18.7247543 110.305315,17.8320149 L112.203803,16.2675866 C112.612839,16.6773991 113.069377,17.0404868 113.571863,17.3566944 C114.074349,17.6738335 114.688291,17.8320149 115.414467,17.8320149 C115.730674,17.8320149 116.051694,17.7992609 116.378147,17.733753 C116.702893,17.6691765 116.99209,17.5662577 117.243721,17.4268593 C117.494576,17.2873057 117.699327,17.1104964 117.857664,16.8962763 C118.01569,16.6820561 118.095169,16.4358581 118.095169,16.15613 C118.095169,15.7837283 117.978279,15.4768346 117.746207,15.2345174 C117.513204,14.9929764 117.233476,14.8021962 116.90873,14.6626427 C116.582277,14.5224681 116.238594,14.4110115 115.875506,14.3276519 C115.512418,14.2435162 115.191554,14.1733513 114.911825,14.1180887 C114.372084,13.9880043 113.860128,13.8383606 113.376426,13.6708653 C112.891791,13.5033699 112.464127,13.2806119 112.09157,13.0008838 C111.719168,12.7219319 111.421589,12.3683133 111.197899,11.939873 C110.975141,11.5120535 110.862909,10.9814704 110.862909,10.3481238 C110.862909,9.66029067 111.007119,9.05954274 111.296161,8.54774276 C111.584427,8.03578754 111.966298,7.61200411 112.440532,7.2770134 C112.915852,6.9420227 113.455128,6.69039158 114.060378,6.52289623 C114.664851,6.35540088 115.274913,6.27204128 115.889632,6.27204128 C116.782371,6.27204128 117.638786,6.43953663 118.458256,6.77452734 C119.27695,7.10951805 119.928459,7.66804287 120.412938,8.44948088 L118.458256,9.92977347 Z" id="Fill-42"></path>
                        <path d="M133.647958,12.1353101 C133.62933,11.5767852 133.540538,11.06483 133.382356,10.5997549 C133.22433,10.1346797 132.986515,9.72952416 132.670152,9.38521953 C132.353944,9.04075966 131.958102,8.77050071 131.483713,8.57568452 C131.009324,8.3802474 130.455456,8.28198553 129.822575,8.28198553 C129.208012,8.28198553 128.64483,8.39887524 128.132875,8.63110235 C127.621075,8.86395039 127.187822,9.16634237 126.834825,9.53858877 C126.481206,9.91099039 126.20629,10.3254599 126.011474,10.7812211 C125.815882,11.2379137 125.717775,11.689018 125.717775,12.1353101 L133.647958,12.1353101 Z M125.717775,14.1461857 C125.717775,14.7234936 125.843979,15.2484883 126.094834,15.7238088 C126.346465,16.1981978 126.676798,16.6033534 127.085835,16.9383441 C127.495647,17.2733348 127.970036,17.5344351 128.509933,17.7197821 C129.04983,17.9059053 129.60851,17.9995103 130.185663,17.9995103 C130.967101,17.9995103 131.646552,17.8178888 132.22386,17.4549563 C132.800391,17.0918686 133.330974,16.6126673 133.815454,16.0167316 L135.714252,17.4689272 C134.31794,19.2741204 132.363413,20.1769499 129.850828,20.1769499 C128.807513,20.1769499 127.863237,20.0001406 127.016446,19.646522 C126.168724,19.2935244 125.452794,18.8042331 124.866172,18.1809765 C124.27955,17.5569437 123.828446,16.8222306 123.512083,15.9746637 C123.195099,15.1277178 123.037694,14.2115384 123.037694,13.2245732 C123.037694,12.2382289 123.20907,11.3211181 123.554306,10.4743274 C123.89768,9.62753672 124.373,8.89204739 124.977629,8.26801465 C125.583034,7.64475807 126.304397,7.15624289 127.141874,6.80246911 C127.97935,6.44885055 128.891649,6.27204128 129.877993,6.27204128 C131.051237,6.27204128 132.042238,6.47679232 132.851773,6.88598394 C133.662084,7.29564125 134.327409,7.83088127 134.848523,8.49154876 C135.369792,9.15221626 135.746074,9.89701951 135.979078,10.7251824 C136.212081,11.5541214 136.328039,12.3964103 136.328039,13.2525149 L136.328039,14.1461857 L125.717775,14.1461857 Z" id="Fill-43"></path>
                    </g>
                </g>
            </g>
        </g>
    </g>
</svg>